<svg width="48" height="48" viewBox="0 0 48 48" fill="none" xmlns="http://www.w3.org/2000/svg">
<rect width="48" height="48" rx="24" fill="#4E4F61"/>
<rect width="48" height="48" rx="24" fill="url(#paint0_linear_3426_171)" fill-opacity="0.8"/>
<path d="M27.409 26.4681C27.3627 26.4217 27.3077 26.3848 27.2471 26.3597C27.1866 26.3346 27.1216 26.3217 27.0561 26.3217C26.9905 26.3217 26.9256 26.3346 26.865 26.3597C26.8044 26.3848 26.7494 26.4217 26.7031 26.4681L24.5254 28.6458L27.7594 31.8799L29.9372 29.7021C30.0299 29.6081 30.0818 29.4813 30.0818 29.3492C30.0818 29.2171 30.0299 29.0903 29.9372 28.9962L27.409 26.4681Z" fill="black"/>
<path d="M20.8003 32.3654C17.0988 35.7064 12.3608 30.7079 15.709 27.0688L18.6225 24.1552L15.3885 20.9211L12.5299 23.7797C10.9892 25.2755 10.0833 27.307 10.0004 29.4527C9.91742 31.5985 10.6637 33.6939 12.0844 35.3041C15.0879 38.7722 20.8633 38.9232 24.0343 35.6044L27.0531 32.5857L23.819 29.3517L20.8003 32.3654Z" fill="black"/>
<path d="M19.3336 23.4493L21.5064 21.2766C21.5535 21.2301 21.5908 21.1748 21.6163 21.1138C21.6419 21.0528 21.655 20.9873 21.655 20.9212C21.655 20.855 21.6419 20.7895 21.6163 20.7285C21.5908 20.6675 21.5535 20.6122 21.5064 20.5657L18.9782 18.0375C18.9319 17.9911 18.8769 17.9543 18.8163 17.9292C18.7558 17.904 18.6908 17.8911 18.6253 17.8911C18.5597 17.8911 18.4948 17.904 18.4342 17.9292C18.3737 17.9543 18.3186 17.9911 18.2723 18.0375L16.0996 20.2153C16.5606 20.6756 18.8256 22.9417 19.3336 23.4493Z" fill="black"/>
<path d="M30.4535 9.98254C28.4546 9.98465 26.5381 10.7797 25.1246 12.1931C23.7112 13.6066 22.9162 15.523 22.9141 17.522C23.3311 27.524 37.5805 27.5208 37.9929 17.5219C37.9916 15.5227 37.1969 13.6058 35.7833 12.1922C34.3696 10.7785 32.4527 9.9838 30.4535 9.98254ZM30.4535 17.0213C31.035 17.0259 31.5945 17.2442 32.0255 17.6346C32.4565 18.0251 32.7288 18.5604 32.7906 19.1386C32.8525 19.7168 32.6995 20.2976 32.3608 20.7703C32.0221 21.2431 31.5214 21.5747 30.954 21.7022L30.9541 22.1928C30.9541 22.3256 30.9014 22.4529 30.8075 22.5468C30.7136 22.6407 30.5863 22.6934 30.4535 22.6934C30.3207 22.6934 30.1934 22.6407 30.0995 22.5468C30.0056 22.4529 29.9529 22.3256 29.9529 22.1928V21.7022C29.4243 21.5879 28.9507 21.2961 28.611 20.8753C28.2713 20.4545 28.0858 19.9301 28.0855 19.3893C28.0881 19.2582 28.1419 19.1333 28.2355 19.0415C28.3292 18.9497 28.455 18.8983 28.5861 18.8983C28.7173 18.8983 28.8431 18.9498 28.9367 19.0416C29.0303 19.1334 29.0842 19.2582 29.0868 19.3893C29.0863 19.6603 29.1662 19.9254 29.3165 20.1509C29.4667 20.3765 29.6805 20.5524 29.9308 20.6563C30.1811 20.7603 30.4566 20.7876 30.7225 20.7348C30.9883 20.6821 31.2325 20.5516 31.4242 20.36C31.6158 20.1684 31.7462 19.9242 31.799 19.6583C31.8518 19.3925 31.8244 19.117 31.7205 18.8667C31.6165 18.6164 31.4407 18.4026 31.2151 18.2523C30.9896 18.102 30.7245 18.0221 30.4535 18.0226C29.8689 18.0221 29.3051 17.8056 28.8704 17.4146C28.4358 17.0236 28.161 16.4858 28.0989 15.9045C28.0368 15.3232 28.1918 14.7394 28.534 14.2654C28.8762 13.7915 29.3815 13.4607 29.9529 13.3367V12.8511C29.9529 12.7183 30.0056 12.591 30.0995 12.4971C30.1934 12.4032 30.3207 12.3505 30.4535 12.3505C30.5863 12.3505 30.7136 12.4032 30.8075 12.4971C30.9014 12.591 30.9541 12.7183 30.9541 12.8511V13.3367C31.4836 13.4519 31.9579 13.7445 32.2984 14.166C32.6389 14.5875 32.8252 15.1127 32.8264 15.6546C32.8264 15.7874 32.7737 15.9147 32.6798 16.0086C32.5859 16.1025 32.4586 16.1552 32.3258 16.1552C32.193 16.1552 32.0657 16.1025 31.9718 16.0086C31.8779 15.9147 31.8252 15.7874 31.8252 15.6546C31.8257 15.3838 31.7459 15.1189 31.5958 14.8935C31.4458 14.668 31.2323 14.4922 30.9823 14.3881C30.7322 14.284 30.457 14.2564 30.1913 14.3087C29.9256 14.3611 29.6814 14.491 29.4896 14.6822C29.2977 14.8733 29.1669 15.117 29.1136 15.3826C29.0602 15.6481 29.0869 15.9234 29.19 16.1738C29.2932 16.4242 29.4683 16.6383 29.6932 16.7892C29.9181 16.9401 30.1827 17.0208 30.4535 17.0213Z" fill="black"/>
<defs>
<linearGradient id="paint0_linear_3426_171" x1="0" y1="24.004" x2="48" y2="24.004" gradientUnits="userSpaceOnUse">
<stop stop-color="#8ec5ff"/>
<stop offset="0.5" stop-color="#68b2ff"/>
<stop offset="1" stop-color="#007dfe"/>
</linearGradient>
</defs>
</svg>
