<svg width="48" height="48" viewBox="0 0 48 48" fill="none" xmlns="http://www.w3.org/2000/svg">
<rect width="48" height="48" rx="24" fill="#4E4F61"/>
<rect width="48" height="48" rx="24" fill="url(#paint0_linear_3426_198)" fill-opacity="0.8"/>
<path fill-rule="evenodd" clip-rule="evenodd" d="M27.0335 20.1018C26.0649 19.7297 25.0376 19.5338 24 19.5235C19.4863 19.5235 15.8135 23.5931 15.8135 23.5931C15.7128 23.7047 15.6571 23.8497 15.6571 24C15.6571 24.1503 15.7128 24.2953 15.8135 24.407C16.9608 25.6039 18.2966 26.6046 19.7677 27.3692L17.4633 29.6719C17.3492 29.7867 17.2853 29.942 17.2856 30.1039C17.2858 30.2657 17.3502 30.4209 17.4647 30.5354C17.5791 30.6498 17.7343 30.7142 17.8961 30.7145C18.058 30.7147 18.2133 30.6508 18.3281 30.5367L20.9665 27.8983C21.9351 28.2704 22.9625 28.4662 24 28.4764C28.5138 28.4764 32.1865 24.407 32.1865 24.407C32.2872 24.2953 32.3429 24.1503 32.3429 24C32.3429 23.8497 32.2872 23.7047 32.1865 23.5931C31.0393 22.3961 29.7035 21.3954 28.2323 20.6308L30.5367 18.3281C30.5935 18.2714 30.6385 18.2039 30.6692 18.1298C30.7 18.0556 30.7158 17.976 30.7158 17.8957C30.7158 17.8154 30.7 17.7359 30.6692 17.6617C30.6385 17.5875 30.5935 17.5201 30.5367 17.4633C30.4799 17.4066 30.4125 17.3615 30.3383 17.3308C30.2641 17.3001 30.1846 17.2842 30.1043 17.2842C30.024 17.2843 29.9445 17.3001 29.8703 17.3308C29.7961 17.3615 29.7287 17.4066 29.6719 17.4634L27.0335 20.1018ZM27.3336 21.5295L26.0297 22.8351C26.2855 23.281 26.3873 23.7988 26.3195 24.3083C26.2517 24.8179 26.018 25.291 25.6545 25.6545C25.291 26.018 24.8179 26.2517 24.3083 26.3195C23.7988 26.3874 23.281 26.2855 22.8351 26.0297L21.9194 26.9437C22.5946 27.1462 23.2952 27.2513 24 27.2556C27.1878 27.2556 29.894 24.9547 30.8792 24C29.84 22.9887 28.6423 22.1541 27.3336 21.5295ZM26.0805 21.0564C25.4054 20.8538 24.7048 20.7487 24 20.7444C20.8122 20.7444 18.106 23.0454 17.1209 24C18.1601 25.0114 19.3577 25.8459 20.6664 26.4705L21.9703 25.1649C21.7145 24.719 21.6127 24.2013 21.6805 23.6917C21.7483 23.1821 21.982 22.709 22.3455 22.3455C22.709 21.982 23.1821 21.7483 23.6917 21.6805C24.2013 21.6126 24.719 21.7145 25.1649 21.9703L26.0805 21.0564ZM24 10.875C21.4041 10.875 18.8665 11.6448 16.7081 13.087C14.5498 14.5292 12.8675 16.579 11.8741 18.9773C10.8807 21.3756 10.6208 24.0146 11.1272 26.5606C11.6336 29.1066 12.8837 31.4452 14.7192 33.2808C16.5548 35.1163 18.8934 36.3664 21.4394 36.8728C23.9854 37.3792 26.6244 37.1193 29.0227 36.1259C31.421 35.1325 33.4708 33.4503 34.913 31.2919C36.3552 29.1335 37.125 26.5959 37.125 24C37.1211 20.5202 35.737 17.1841 33.2765 14.7235C30.8159 12.263 27.4798 10.8789 24 10.875Z" fill="black"/>
<defs>
<linearGradient id="paint0_linear_3426_198" x1="0" y1="24.004" x2="48" y2="24.004" gradientUnits="userSpaceOnUse">
<stop stop-color="#8ec5ff"/>
<stop offset="0.5" stop-color="#68b2ff"/>
<stop offset="1" stop-color="#007dfe"/>
</linearGradient>
</defs>
</svg>
