<svg width="48" height="48" viewBox="0 0 48 48" fill="none" xmlns="http://www.w3.org/2000/svg">
<rect width="48" height="48" rx="24" fill="#4E4F61"/>
<rect width="48" height="48" rx="24" fill="url(#paint0_linear_3426_189)" fill-opacity="0.8"/>
<g clip-path="url(#clip0_3426_189)">
<path d="M13.373 15.2188C12.937 15.2188 12.582 14.8638 12.582 14.4277C12.582 13.9916 12.937 13.6367 13.373 13.6367H14.9551C15.392 13.6367 15.7461 13.2826 15.7461 12.8457C15.7461 12.4088 15.392 12.0547 14.9551 12.0547H14.1641V11.791C14.1641 11.3541 13.81 11 13.373 11C12.9361 11 12.582 11.3541 12.582 11.791V12.1906C11.6612 12.5173 11 13.3965 11 14.4277C11 15.7362 12.0646 16.8008 13.373 16.8008C13.8091 16.8008 14.1641 17.1557 14.1641 17.5918C14.1641 18.0279 13.8091 18.3828 13.373 18.3828H11.791C11.3541 18.3828 11 18.7369 11 19.1738C11 19.6107 11.3541 19.9648 11.791 19.9648H12.582V20.2285C12.582 20.6654 12.9361 21.0195 13.373 21.0195C13.81 21.0195 14.1641 20.6654 14.1641 20.2285V19.8289C15.0849 19.5022 15.7461 18.623 15.7461 17.5918C15.7461 16.2833 14.6815 15.2188 13.373 15.2188Z" fill="black"/>
<path d="M22.373 26.9258H19.209C18.7721 26.9258 18.418 27.2799 18.418 27.7168V37.209C18.418 37.6459 18.7721 38 19.209 38H22.373C22.8098 38 23.1641 37.6459 23.1641 37.209V27.7168C23.1641 27.2799 22.8098 26.9258 22.373 26.9258Z" fill="black"/>
<path d="M29.791 30.0898H26.627C26.1902 30.0898 25.8359 30.4439 25.8359 30.8809V37.209C25.8359 37.6459 26.1902 38 26.627 38H29.791C30.2279 38 30.582 37.6459 30.582 37.209V30.8809C30.582 30.4439 30.2279 30.0898 29.791 30.0898Z" fill="black"/>
<path d="M37.209 33.2539H34.0449C33.608 33.2539 33.2539 33.608 33.2539 34.0449V37.209C33.2539 37.6459 33.608 38 34.0449 38H37.209C37.6459 38 38 37.6459 38 37.209V34.0449C38 33.608 37.6459 33.2539 37.209 33.2539Z" fill="black"/>
<path d="M14.9551 22.6016H11.791C11.3541 22.6016 11 22.9557 11 23.3926V37.209C11 37.6459 11.3541 38 11.791 38H14.9551C15.392 38 15.7461 37.6459 15.7461 37.209V23.3926C15.7461 22.9557 15.392 22.6016 14.9551 22.6016Z" fill="black"/>
<path d="M32.5657 27.3402C32.5803 27.3384 32.5949 27.3363 32.6094 27.3334C32.6207 27.3314 32.6318 27.3289 32.6429 27.3262C32.6553 27.3233 32.6679 27.3203 32.68 27.3168C32.6915 27.3135 32.7031 27.31 32.7144 27.306C32.7262 27.3021 32.7377 27.2978 32.7492 27.2933C32.7603 27.2889 32.7715 27.2846 32.7824 27.2799C32.7939 27.2747 32.8055 27.269 32.8168 27.2632C32.8271 27.258 32.8374 27.2531 32.8473 27.2475C32.8592 27.241 32.8708 27.2335 32.8825 27.2263C32.8914 27.2208 32.9006 27.2154 32.9093 27.2094C32.9221 27.2006 32.9342 27.1909 32.9466 27.1814C32.9536 27.1761 32.961 27.1711 32.9678 27.1654C32.9682 27.1649 32.9688 27.1647 32.9692 27.1643L36.1333 24.5276C36.4688 24.2479 36.5144 23.7492 36.2346 23.4134C35.9549 23.0778 35.456 23.0325 35.1206 23.3122L33.1513 24.9532C32.8046 22.2485 31.5837 19.7492 29.6262 17.7916C27.2869 15.4523 24.1739 14.1641 20.8613 14.1641C20.4244 14.1641 20.0703 14.5182 20.0703 14.9551C20.0703 15.392 20.4244 15.7461 20.8613 15.7461C23.7514 15.7461 26.467 16.87 28.5074 18.9106C30.1609 20.5639 31.2121 22.6603 31.5518 24.9338L29.2313 23.2764C28.8759 23.0224 28.3817 23.1048 28.1278 23.4601C27.874 23.8157 27.9562 24.3097 28.3117 24.5637L32.0031 27.2004C32.0062 27.2024 32.0093 27.2043 32.0124 27.2066C32.0202 27.2119 32.0282 27.2169 32.0361 27.222C32.048 27.2296 32.0598 27.237 32.0719 27.2438C32.0806 27.2488 32.0892 27.2535 32.0983 27.2583C32.1108 27.2648 32.1236 27.2708 32.1364 27.2766C32.145 27.2805 32.1533 27.2846 32.1619 27.2881C32.1825 27.2966 32.2035 27.3044 32.2246 27.311C32.2309 27.313 32.2375 27.3145 32.2439 27.3163C32.2604 27.3211 32.2769 27.3254 32.2934 27.3291C32.302 27.331 32.3107 27.3326 32.3193 27.3341C32.3352 27.3372 32.3512 27.3394 32.3671 27.3415C32.3751 27.3423 32.3828 27.3433 32.3908 27.3442C32.4147 27.3462 32.4388 27.3477 32.4627 27.3477H32.4629H32.4633C32.488 27.3477 32.5125 27.3462 32.537 27.3439C32.5467 27.3429 32.5562 27.3415 32.5657 27.3402Z" fill="black"/>
</g>
<defs>
<linearGradient id="paint0_linear_3426_189" x1="0" y1="24.004" x2="48" y2="24.004" gradientUnits="userSpaceOnUse">
<stop stop-color="#8ec5ff"/>
<stop offset="0.5" stop-color="#68b2ff"/>
<stop offset="1" stop-color="#007dfe"/>
</linearGradient>
<clipPath id="clip0_3426_189">
<rect width="27" height="27" fill="white" transform="translate(11 11)"/>
</clipPath>
</defs>
</svg>
