<svg width="49" height="48" viewBox="0 0 49 48" fill="none" xmlns="http://www.w3.org/2000/svg">
<rect x="0.333008" width="48" height="48" rx="24" fill="#4E4F61"/>
<rect x="0.333008" width="48" height="48" rx="24" fill="url(#paint0_linear_3426_183)" fill-opacity="0.8"/>
<path fill-rule="evenodd" clip-rule="evenodd" d="M24.6766 10.009C32.3986 10.009 38.6676 16.278 38.6676 24C38.6676 31.722 32.3986 37.991 24.6766 37.991C16.9536 37.991 10.6846 31.722 10.6846 24C10.6846 16.278 16.9536 10.009 24.6766 10.009ZM32.4176 14.845C30.3276 13.076 27.6256 12.009 24.6766 12.009C18.0576 12.009 12.6846 17.382 12.6846 24C12.6846 26.949 13.7516 29.652 15.5206 31.741L32.4176 14.845ZM17.0096 28.838C17.3276 26.134 19.0466 23.855 21.4206 22.748C20.4826 21.875 19.8966 20.63 19.8966 19.249C19.8966 16.611 22.0376 14.469 24.6766 14.469C26.4896 14.469 28.0676 15.481 28.8776 16.97L17.0096 28.838ZM16.9346 33.155C19.0246 34.924 21.7266 35.991 24.6766 35.991C31.2946 35.991 36.6676 30.618 36.6676 24C36.6676 21.051 35.6006 18.348 33.8316 16.259L16.9346 33.155ZM28.4756 23.029C30.8156 24.356 32.3966 26.869 32.3966 29.749C32.3966 30.83 31.7116 31.769 30.4576 32.418C29.0556 33.143 26.8676 33.531 24.6766 33.531C22.5496 33.531 20.4286 33.166 19.0226 32.482L28.4756 23.029Z" fill="black"/>
<defs>
<linearGradient id="paint0_linear_3426_183" x1="0.333008" y1="24.004" x2="48.333" y2="24.004" gradientUnits="userSpaceOnUse">
<stop stop-color="#8ec5ff"/>
<stop offset="0.5" stop-color="#68b2ff"/>
<stop offset="1" stop-color="#007dfe"/>
</linearGradient>
</defs>
</svg>
