<svg width="49" height="48" viewBox="0 0 49 48" fill="none" xmlns="http://www.w3.org/2000/svg">
<rect x="0.666992" width="48" height="48" rx="24" fill="#4E4F61"/>
<rect x="0.666992" width="48" height="48" rx="24" fill="url(#paint0_linear_3426_178)" fill-opacity="0.8"/>
<path fill-rule="evenodd" clip-rule="evenodd" d="M16.3327 10C15.7807 10 15.3327 10.448 15.3327 11C15.3327 11.552 15.7807 12 16.3327 12H19.9187L22.6257 14.707C22.8127 14.895 23.0677 15 23.3327 15H26.9187L29.9187 18H29.3327C28.7807 18 28.3327 18.448 28.3327 19C28.3327 19.552 28.7807 20 29.3327 20H32.3327C32.8847 20 33.3327 19.552 33.3327 19V16C33.3327 15.448 32.8847 15 32.3327 15C31.7807 15 31.3327 15.448 31.3327 16V16.586L28.0397 13.293C27.8527 13.105 27.5977 13 27.3327 13H23.7467L21.0397 10.293C20.8527 10.105 20.5977 10 20.3327 10H16.3327ZM15.0707 20.418C14.1707 20.418 13.4397 21.149 13.4397 22.049C13.4397 22.949 14.1707 23.68 15.0707 23.68H21.5947C22.4947 23.68 23.2257 22.949 23.2257 22.049C23.2257 21.149 22.4947 20.418 21.5947 20.418H15.0707ZM15.0707 25.049C14.1707 25.049 13.4397 25.779 13.4397 26.68C13.4397 27.58 14.1707 28.311 15.0707 28.311H21.5947C22.4947 28.311 23.2257 27.58 23.2257 26.68C23.2257 25.779 22.4947 25.049 21.5947 25.049H15.0707ZM26.9677 25.049C26.0667 25.049 25.3367 25.779 25.3367 26.68C25.3367 27.58 26.0667 28.311 26.9677 28.311H33.4907C34.3907 28.311 35.1217 27.58 35.1217 26.68C35.1217 25.779 34.3907 25.049 33.4907 25.049H26.9677ZM14.9517 29.621C14.0187 29.621 13.2627 30.38 13.2627 31.313C13.2627 32.245 14.0187 33.002 14.9517 33.002H21.7137C22.6467 33.002 23.4027 32.245 23.4027 31.313C23.4027 30.38 22.6467 29.621 21.7137 29.621H14.9517ZM26.8487 29.621C25.9157 29.621 25.1587 30.38 25.1587 31.313C25.1587 32.245 25.9157 33.002 26.8487 33.002H33.6077C34.5407 33.002 35.2997 32.245 35.2997 31.313C35.2997 30.38 34.5407 29.621 33.6077 29.621H26.8487ZM14.9517 34.254C14.0187 34.254 13.2627 35.01 13.2627 35.943C13.2627 36.876 14.0187 37.635 14.9517 37.635H21.7137C22.6467 37.635 23.4027 36.876 23.4027 35.943C23.4027 35.01 22.6467 34.254 21.7137 34.254H14.9517ZM26.8487 34.254C25.9157 34.254 25.1587 35.01 25.1587 35.943C25.1587 36.876 25.9157 37.635 26.8487 37.635H33.6077C34.5407 37.635 35.2997 36.876 35.2997 35.943C35.2997 35.01 34.5407 34.254 33.6077 34.254H26.8487Z" fill="black"/>
<defs>
<linearGradient id="paint0_linear_3426_178" x1="0.666992" y1="24.004" x2="48.667" y2="24.004" gradientUnits="userSpaceOnUse">
<stop stop-color="#8ec5ff"/>
<stop offset="0.5" stop-color="#68b2ff"/>
<stop offset="1" stop-color="#007dfe"/>
</linearGradient>
</defs>
</svg>
