<svg xmlns="http://www.w3.org/2000/svg" width="600" height="400" viewBox="0 0 600 400" fill="none" role="img" aria-label="">
  <defs>
    <linearGradient id="re-bg" x1="0" y1="0" x2="600" y2="400" gradientUnits="userSpaceOnUse"><stop stop-color="#0c1422"/><stop offset="1" stop-color="#05080d"/></linearGradient>
    <linearGradient id="re-g" x1="0" y1="1" x2="1" y2="0"><stop stop-color="#8ec5ff"/><stop offset="0.5" stop-color="#68b2ff"/><stop offset="1" stop-color="#007dfe"/></linearGradient>
    <radialGradient id="re-glow" cx="0.5" cy="0.5" r="0.5"><stop stop-color="#68b2ff" stop-opacity="0.4"/><stop offset="1" stop-color="#68b2ff" stop-opacity="0"/></radialGradient>
  </defs>
  <rect width="600" height="400" fill="url(#re-bg)"/>
  <circle cx="300" cy="170" r="230" fill="url(#re-glow)"/>
  <g stroke="url(#re-g)" stroke-width="6" fill="none" stroke-linecap="round">
    <path d="M214 196 a92 92 0 0 1 158 -52"/>
    <path d="M356 116 l20 30 l-34 8"/>
    <path d="M386 164 a92 92 0 0 1 -158 52"/>
    <path d="M244 244 l-20 -30 l34 -8"/>
  </g>
  <g stroke="url(#re-g)" stroke-width="6" fill="none" stroke-linecap="round" stroke-linejoin="round">
    <path d="M262 206 L292 176 L312 194 L342 158"/>
    <path d="M322 156 L346 154 L346 178"/>
  </g>
</svg>
